<?xml version="1.0" encoding="utf-8"?>
<!-- Generator: Adobe Illustrator 25.2.1, SVG Export Plug-In . SVG Version: 6.00 Build 0)  -->
<svg version="1.1" id="Layer_1" xmlns="http://www.w3.org/2000/svg" xmlns:xlink="http://www.w3.org/1999/xlink" x="0px" y="0px"
	 viewBox="0 0 350.8 134.4" style="enable-background:new 0 0 350.8 134.4;" xml:space="preserve">
<style type="text/css">
	.st0{fill-rule:evenodd;clip-rule:evenodd;fill:#E12228;}
	.st1{fill:#E12228;}
	.st2{enable-background:new    ;}
</style>
<g>
	<path class="st0" d="M76.3,78.8c-0.3,0-0.6-0.2-0.6-0.6c0-0.3,0.3-0.6,0.6-0.6s0.6,0.3,0.6,0.6C76.8,78.6,76.6,78.8,76.3,78.8"/>
	<path class="st0" d="M111.8,78.3h3.2V42.6h0.6V31.4l-1.5-0.8v-3.3c-1.4-1.8-1.6-2.4-2.3-3.6v7.9c0.9,0.3,1.8,1.5,1.9,3.1
		c0.2,1.7-0.5,3.1-1.6,3.1c-0.1,0-0.2,0-0.3-0.1L111.8,78.3L111.8,78.3z M111.8,35.2v-1l0.1,0.3l1.4-1l-1.3,1.3l0.2,0.7l-0.3,0
		L111.8,35.2z M102.5,78.3h9.3V37.8c-0.9-0.3-1.8-1.5-1.9-3.1c-0.2-1.7,0.5-3.1,1.6-3.1c0.1,0,0.2,0,0.3,0v-7.9
		c-0.3-0.5-0.6-1.1-1.1-1.9v-3.7c1.9,0.3-0.4-1.9-1.5-3.5c-1.1-1.6-2.1-5.4-2.1-7.9V6.7c0-0.4-0.1-0.8-0.2-1
		c0.1-0.1,0.2-0.3,0.2-0.6c0-0.4-0.2-0.7-0.4-0.7s-0.4,0.3-0.4,0.7c0,0.2,0.1,0.5,0.2,0.6c-0.1,0.2-0.2,0.6-0.2,1v0.1
		c0,2.4-0.5,4.2-2,7.5c-0.8,1.8-1.6,2.8-1.8,3.4v0.4c0.1,0.1,0.4,0.1,0.9,0v3.7c-0.4,0.6-0.6,1.1-0.9,1.5v8.4c0.1,0,0.2,0,0.3,0
		c1.5,0,2.6,1.4,2.4,3.2c-0.2,1.7-1.3,3-2.7,3.2V78.3z M111.8,34.2v1l0-0.3l-0.4,0.4l-0.2-0.3l0.5-0.4l-0.3-1.8L111.8,34.2z
		 M102.5,35.6V33v0l0.1,1.7l2-0.8l-2,1.1l0,0.7C102.6,35.6,102.5,35.6,102.5,35.6z M99,78.3h3.4V38.1c-0.1,0-0.2,0-0.3,0
		c-1.5,0-2.6-1.4-2.4-3.2c0.2-1.7,1.3-3,2.7-3.2v-8.4c-0.9,1.5-1,2-2.5,4v3.5l-1.5,0.5v11.2H99C99,42.6,99,78.3,99,78.3z
		 M102.5,17.7c-0.1,0.2-0.1,0.3,0,0.4V17.7z M102.5,33v2.6h-0.2l0-0.5l-0.6,0.3l-0.2-0.3l0.8-0.3L102.5,33z"/>
	<path class="st0" d="M125.4,78.1h12.7V28v-3.5h-0.3v-4h-0.5l-0.5-3.9l-0.5,3.9h-0.5v4h-0.3V28h-0.2c0-0.8-0.3-1.5-0.7-2.1
		c0-0.2,0.1-0.4,0.1-0.5c0-1.4-1-2.6-2.4-2.8l-0.4-3.5l-0.4,3.5c-1.4,0.2-2.4,1.4-2.4,2.8c0,0.2,0,0.4,0.1,0.5
		c-0.5,0.6-0.7,1.3-0.7,2.1h-0.2v-3.5h-0.3v-4h-0.5l-0.5-3.9l-0.5,3.9h-0.5v4h-0.3V28L125.4,78.1L125.4,78.1z"/>
	<rect x="15.2" y="73.9" class="st0" width="123" height="8.3"/>
	<path class="st0" d="M32,74.6h-8.4h-8.4V43.5v-3v-2.4l0.4-0.3v-1.8l0.7-0.6V33c0-0.1,0.1-0.2,0.2-0.2c0.1,0,0.2,0.1,0.2,0.2v2.3
		l0.7,0.6v1.8l0.4,0.3v0.2l4.1-3.4v-3.3l0.5-0.4v-2.2l0.8-0.7V26c0-0.2,0.1-0.3,0.3-0.3h0h0h0c0.2,0,0.3,0.1,0.3,0.3v2.2l0.8,0.7
		v2.2l0.5,0.4v3.3l4.1,3.4v-0.2l0.4-0.3v-1.8l0.7-0.6V33c0-0.1,0.1-0.2,0.2-0.2c0.1,0,0.2,0.1,0.2,0.2v2.3l0.7,0.6v1.8l0.4,0.3v2.4
		v3L32,74.6L32,74.6z"/>
	<path class="st0" d="M54.8,74.9h-5.1h-5.1V55.9v-1.8v-1.5l0.3-0.2v-1.1l0.4-0.4v-1.4c0-0.1,0.1-0.1,0.1-0.1s0.1,0.1,0.1,0.1v1.4
		l0.4,0.4v1.1l0.3,0.2v0.1l2.5-2.1v-2l0.3-0.3V47l0.5-0.4v-1.3c0-0.1,0.1-0.2,0.2-0.2h0h0c0.1,0,0.2,0.1,0.2,0.2v1.3l0.5,0.4v1.3
		l0.3,0.3v2l2.5,2.1v-0.1l0.3-0.2v-1.1l0.4-0.4v-1.4c0-0.1,0.1-0.1,0.1-0.1c0.1,0,0.1,0.1,0.1,0.1v1.4l0.4,0.4v1.1l0.3,0.2v1.5v1.8
		L54.8,74.9L54.8,74.9z"/>
	<polygon class="st0" points="48,55.1 26.1,47.3 26.1,52.4 48,60.2 	"/>
	<path class="st1" d="M46.5,57.4c0.1-0.1,0.2-0.1,0.3,0c0.1,0.1,0.1,0.2,0,0.3c-0.4,0.5-0.8,1-1.3,1.6v5.3c0.4-0.4,0.8-0.7,1.1-1.1
		c0.1-0.1,0.2-0.1,0.3,0s0.1,0.2,0,0.3c-0.4,0.5-0.8,1-1.3,1.5v7.6c0,0.1-0.1,0.2-0.2,0.2c-0.1,0-0.2-0.1-0.2-0.2v-7.2
		c-0.2,0.2-0.4,0.4-0.6,0.6v-0.7c0.2-0.2,0.4-0.3,0.6-0.5v-5.2c-0.2,0.2-0.4,0.4-0.6,0.7v-0.8c0.2-0.2,0.5-0.4,0.7-0.6c0,0,0,0,0,0
		C45.7,58.3,46.1,57.8,46.5,57.4 M44.4,66.1c-0.2,0.2-0.4,0.3-0.6,0.5v6.1c0,0.1-0.1,0.2-0.2,0.2c-0.1,0-0.2-0.1-0.2-0.2v-5.8
		c-0.4,0.3-0.8,0.6-1.2,0.9v-0.4l0.1-0.1l-0.1,0.1v-0.4c0.4-0.3,0.8-0.5,1.2-0.8v-4.9c-0.4,0.4-0.8,0.7-1.2,1.1v-0.5l0.1-0.1
		l-0.1,0.1v-0.5c0.4-0.3,0.9-0.7,1.3-1c0,0,0,0,0,0c0.3-0.3,0.6-0.5,0.9-0.8v0.8c-0.2,0.2-0.4,0.4-0.6,0.6v5
		c0.2-0.2,0.4-0.3,0.6-0.5V66.1z M42.3,67.8L42.3,67.8l-0.1,5c0,0.1-0.1,0.2-0.2,0.2c-0.1,0-0.2-0.1-0.2-0.2v-4.7
		c-0.2,0.1-0.4,0.3-0.6,0.4V68c0.2-0.1,0.4-0.3,0.6-0.4v-0.1c-0.2,0.1-0.4,0.2-0.6,0.3v-0.4c0.2-0.1,0.4-0.2,0.6-0.3v-4.4
		c-0.2,0.2-0.4,0.3-0.6,0.5v-0.5c0.2-0.2,0.4-0.3,0.6-0.5v-0.1c-0.2,0.2-0.4,0.3-0.6,0.4v-0.4c0.2-0.2,0.5-0.3,0.7-0.5c0,0,0,0,0,0
		c0.1-0.1,0.2-0.2,0.3-0.2v0.5l-0.1,0v0l0.1-0.1v0.5l-0.1,0v4.6l0.1,0v0.4l-0.1,0v0l0.1,0L42.3,67.8L42.3,67.8z M41.2,68.5
		c-0.2,0.1-0.4,0.3-0.6,0.4v3.9c0,0.1-0.1,0.2-0.2,0.2s-0.2-0.1-0.2-0.2v-3.7c-0.2,0.1-0.4,0.2-0.6,0.3V69c0.2-0.1,0.4-0.2,0.6-0.4
		v-0.2c-0.2,0.1-0.4,0.2-0.6,0.3v-0.4c0.2-0.1,0.4-0.2,0.6-0.3v-4c-0.2,0.2-0.4,0.3-0.6,0.5V64c0.2-0.2,0.4-0.3,0.6-0.5v-0.3
		c-0.2,0.1-0.4,0.3-0.6,0.4v-0.4c0.2-0.1,0.5-0.3,0.7-0.4c0,0,0,0,0,0c0.3-0.2,0.6-0.4,0.9-0.6v0.4c-0.2,0.1-0.4,0.3-0.6,0.4v0.2
		c0.2-0.2,0.4-0.3,0.6-0.5v0.5c-0.2,0.2-0.4,0.3-0.6,0.5v4.1c0.2-0.1,0.4-0.2,0.6-0.3v0.4c-0.2,0.1-0.4,0.2-0.6,0.3v0.2
		c0.2-0.1,0.4-0.3,0.6-0.4L41.2,68.5L41.2,68.5z M39.6,69.4c-0.2,0.1-0.4,0.2-0.6,0.3v3c0,0.1-0.1,0.2-0.2,0.2
		c-0.1,0-0.2-0.1-0.2-0.2v-2.8c-0.2,0.1-0.4,0.2-0.6,0.3v-0.4c0.2-0.1,0.4-0.2,0.6-0.3v-0.4c-0.2,0.1-0.4,0.2-0.6,0.3v-0.4
		c0.2-0.1,0.4-0.2,0.6-0.2v-3.6c-0.2,0.1-0.4,0.3-0.6,0.4v-0.4c0.2-0.1,0.4-0.3,0.6-0.4v-0.4c-0.2,0.1-0.4,0.2-0.6,0.3v-0.4
		c0.2-0.1,0.5-0.3,0.7-0.4c0,0,0,0,0,0c0.3-0.2,0.6-0.4,0.9-0.5v0.4c-0.2,0.1-0.4,0.3-0.6,0.4v0.4c0.2-0.2,0.4-0.3,0.6-0.4v0.4
		c-0.2,0.2-0.4,0.3-0.6,0.4v3.7c0.2-0.1,0.4-0.2,0.6-0.3v0.4c-0.2,0.1-0.4,0.2-0.6,0.3v0.4c0.2-0.1,0.4-0.2,0.6-0.3L39.6,69.4
		L39.6,69.4z M38,70.2c-0.2,0.1-0.4,0.2-0.6,0.3v2.2c0,0.1-0.1,0.2-0.2,0.2c-0.1,0-0.2-0.1-0.2-0.2v-2.1l-0.1,0.1
		c-0.2,0.1-0.4,0.2-0.5,0.2v-0.4c0.1-0.1,0.3-0.1,0.4-0.2c0.1-0.1,0.2-0.1,0.3-0.1v-0.6l-0.1,0c-0.2,0.1-0.3,0.1-0.5,0.2v-0.4
		c0.1,0,0.3-0.1,0.4-0.1c0.1,0,0.2,0,0.2-0.1v-3.2c-0.2,0.1-0.4,0.3-0.6,0.4v-0.4c0.2-0.1,0.4-0.3,0.6-0.4v-0.6
		c-0.2,0.1-0.4,0.2-0.6,0.3V65c0.2-0.1,0.5-0.2,0.7-0.3c0,0,0,0,0,0c0.3-0.2,0.6-0.3,0.9-0.5v0.4c-0.2,0.1-0.4,0.2-0.6,0.3v0.6
		c0.2-0.1,0.4-0.3,0.6-0.4v0.4c-0.2,0.1-0.4,0.3-0.6,0.4v3.3c0.2-0.1,0.4-0.2,0.6-0.2v0.4c-0.2,0.1-0.4,0.2-0.6,0.2v0.6
		c0.2-0.1,0.4-0.2,0.6-0.3L38,70.2L38,70.2z M36.3,71c-0.2,0.1-0.4,0.2-0.6,0.3v1.5c0,0.1-0.1,0.2-0.2,0.2s-0.2-0.1-0.2-0.2v-1.4
		c-0.2,0.1-0.4,0.2-0.6,0.2v-0.4c0.2-0.1,0.4-0.2,0.6-0.3v-0.8c-0.2,0.1-0.4,0.1-0.6,0.2V70c0.2-0.1,0.4-0.1,0.6-0.2v-2.7
		c-0.2,0.1-0.4,0.2-0.6,0.3V67c0.2-0.1,0.4-0.2,0.6-0.3v-0.8c-0.2,0.1-0.4,0.2-0.6,0.3v-0.4c0.2-0.1,0.5-0.2,0.7-0.3c0,0,0,0,0,0
		c0.1-0.1,0.3-0.1,0.4-0.2s0.3-0.1,0.4-0.2v0.4c-0.1,0.1-0.2,0.1-0.3,0.1c-0.1,0.1-0.2,0.1-0.4,0.2v0.8c0.1,0,0.1-0.1,0.2-0.1
		c0.2-0.1,0.3-0.2,0.4-0.3v0.4c-0.1,0.1-0.2,0.1-0.3,0.2c-0.1,0.1-0.3,0.1-0.4,0.2v2.8c0.2-0.1,0.4-0.1,0.6-0.2v0.4
		c-0.2,0.1-0.4,0.1-0.6,0.2v0.7c0.2-0.1,0.4-0.2,0.6-0.3L36.3,71L36.3,71z M34.7,71.6c-0.2,0.1-0.4,0.2-0.6,0.2v0.9
		c0,0.1-0.1,0.2-0.2,0.2s-0.2-0.1-0.2-0.2V72c-0.2,0.1-0.4,0.1-0.6,0.2v-0.4c0.2-0.1,0.4-0.1,0.6-0.2v-0.9c-0.2,0.1-0.4,0.1-0.6,0.2
		v-0.4c0.2-0.1,0.4-0.1,0.6-0.2v-2.3c-0.2,0.1-0.4,0.2-0.6,0.3v-0.4c0.2-0.1,0.4-0.2,0.6-0.3v-1c-0.2,0.1-0.4,0.2-0.6,0.2v-0.4
		c0.2-0.1,0.5-0.2,0.7-0.3c0,0,0,0,0,0c0.3-0.1,0.6-0.2,0.9-0.3v0.4c-0.2,0.1-0.4,0.2-0.6,0.3v1c0.2-0.1,0.4-0.2,0.6-0.3v0.4
		c-0.2,0.1-0.4,0.2-0.6,0.3v2.4c0.2-0.1,0.4-0.1,0.6-0.2v0.4c-0.2,0.1-0.4,0.1-0.6,0.2v0.9c0.2-0.1,0.4-0.2,0.6-0.2V71.6z
		 M33.1,72.2c-0.2,0.1-0.4,0.1-0.6,0.2v0.4c0,0.1-0.1,0.2-0.2,0.2c-0.1,0-0.2-0.1-0.2-0.2v-0.3c-0.2,0.1-0.4,0.1-0.6,0.2v-0.4
		c0.2-0.1,0.4-0.1,0.6-0.2V71c-0.2,0-0.4,0.1-0.6,0.1v-0.4c0.2,0,0.4-0.1,0.6-0.1v-1.9c-0.2,0.1-0.4,0.2-0.6,0.3v-0.4
		c0.2-0.1,0.4-0.2,0.6-0.3v-1.2c-0.2,0.1-0.4,0.1-0.6,0.2v-0.4c0.3-0.1,0.5-0.2,0.7-0.2c0,0,0,0,0,0c0.3-0.1,0.6-0.2,0.8-0.3v0.4
		c-0.2,0.1-0.4,0.2-0.6,0.2v1.1c0.2-0.1,0.4-0.2,0.6-0.3v0.4c-0.2,0.1-0.4,0.2-0.6,0.3v2c0.2,0,0.4-0.1,0.6-0.1v0.4
		c-0.2,0.1-0.4,0.1-0.6,0.1V72c0.2-0.1,0.4-0.1,0.6-0.2L33.1,72.2L33.1,72.2z M31.5,72.7c-0.2,0.1-0.4,0.1-0.6,0.2
		c0,0.1-0.1,0.1-0.2,0.1c0,0-0.1,0-0.1,0c-0.2,0.1-0.5,0.1-0.7,0.2v-0.4c0.2-0.1,0.4-0.1,0.6-0.2v-1.3c-0.2,0-0.4,0.1-0.6,0.1V71
		c0.2,0,0.4-0.1,0.6-0.1v-1.5c-0.2,0.1-0.4,0.2-0.6,0.2v-0.4c0.2-0.1,0.4-0.2,0.6-0.2v-1.4c-0.2,0.1-0.4,0.1-0.6,0.2v-0.4
		c0.3-0.1,0.5-0.1,0.7-0.2c0,0,0,0,0,0c0.3-0.1,0.6-0.2,0.8-0.3v0.4c-0.2,0.1-0.4,0.1-0.6,0.2v1.3c0.2-0.1,0.4-0.2,0.6-0.3v0.4
		c-0.2,0.1-0.4,0.2-0.6,0.3v1.6c0.2,0,0.4-0.1,0.6-0.1v0.4c-0.2,0-0.4,0.1-0.6,0.1v1.2c0.2-0.1,0.4-0.1,0.6-0.2
		C31.5,72.3,31.5,72.7,31.5,72.7z M29.8,73.1c-0.5,0.1-1.1,0.2-1.6,0.3V73c0.2-0.1,0.5-0.1,0.7-0.1c0,0-0.1-0.1-0.1-0.2v-1.3
		c-0.2,0-0.4,0-0.6,0.1v-0.4c0.2,0,0.4,0,0.6-0.1v-1.2c-0.2,0.1-0.4,0.1-0.6,0.2v-0.4c0.2-0.1,0.4-0.1,0.6-0.2v-1.6
		c-0.2,0-0.4,0.1-0.6,0.1v-0.4c0.3-0.1,0.5-0.1,0.8-0.2c0,0,0,0,0,0c0.3-0.1,0.6-0.1,0.8-0.2v0.4c-0.2,0.1-0.4,0.1-0.6,0.2v1.5
		c0.2-0.1,0.4-0.2,0.6-0.2v0.4c-0.2,0.1-0.4,0.2-0.6,0.2v1.3c0.2,0,0.4-0.1,0.6-0.1v0.4c-0.2,0-0.4,0.1-0.6,0.1v1.3c0,0,0,0.1,0,0.1
		c0.2,0,0.4-0.1,0.6-0.2L29.8,73.1L29.8,73.1z M28.2,73.4c-1.6,0.3-3.3,0.5-5,0.6c-0.1,0-0.2-0.1-0.2-0.2c0-0.1,0.1-0.2,0.2-0.2
		c1.7-0.1,3.4-0.3,5-0.7C28.2,73,28.2,73.4,28.2,73.4z M28.2,71.5c-0.2,0-0.4,0-0.6,0v1.2c0,0.1-0.1,0.2-0.2,0.2s-0.2-0.1-0.2-0.2
		v-1.1c-1.3,0.1-2.6,0.1-4,0.1c-0.1,0-0.2-0.1-0.2-0.2c0-0.1,0.1-0.2,0.2-0.2c1.4,0,2.7,0,4-0.1v-0.8c-1.3,0.3-2.6,0.6-4,0.8
		c-0.1,0-0.2-0.1-0.2-0.2c0-0.1,0-0.2,0.2-0.2c1.4-0.2,2.7-0.5,4-0.8v-1.7c-1.3,0.2-2.6,0.3-4,0.4c-0.1,0-0.2-0.1-0.2-0.2
		s0.1-0.2,0.2-0.2c1.4,0,2.8-0.2,4.1-0.4h0c0.3,0,0.5-0.1,0.8-0.2v0.4c-0.2,0-0.4,0.1-0.6,0.1v1.7c0.2-0.1,0.4-0.1,0.6-0.2v0.4
		c-0.2,0.1-0.4,0.1-0.6,0.2v0.9c0.2,0,0.4,0,0.6-0.1L28.2,71.5L28.2,71.5z"/>
	<rect x="28.7" y="72.6" class="st0" width="19.3" height="2.3"/>
	<path class="st0" d="M86.5,34.5c1.4,0.8,2.8,1.9,3.9,3.1c3.6,3.6,5.9,8.6,5.9,14.2c0,5.5-2.2,10.5-5.9,14.2
		c-1.2,1.2-2.5,2.2-3.9,3.1v-0.5c0.4-0.2,0.7-0.5,1.1-0.7l-1.1-1.5v-0.9l1.5,2.1c0.8-0.6,1.5-1.2,2.1-1.8c2.1-2.1,3.7-4.7,4.7-7.5
		l-8.3-2.7v-0.6l8.5,2.8c0.6-1.8,0.9-3.8,0.9-5.8c0-2-0.3-4-0.9-5.8l-8.5,2.8v-0.6l8.3-2.7c-1-2.9-2.6-5.4-4.7-7.5
		c-0.7-0.7-1.4-1.3-2.1-1.8l-1.5,2.1v-0.9l1.1-1.5c-0.3-0.2-0.7-0.5-1.1-0.7V34.5z M76.3,31.6c3.7,0,7.2,1,10.2,2.8V35
		c-2.9-1.8-6.3-2.8-10-2.9v18.8l10-13.7v0.9L77,51.2l9.5-3.1v0.6l-9.4,3l9.4,3v0.6L77,52.2l9.5,13.1v0.9l-10-13.7v18.8
		c3.7-0.1,7.1-1.1,10-2.9v0.5c-3,1.8-6.5,2.8-10.2,2.8c-2,0-3.9-0.3-5.8-0.8v-0.5c1.7,0.5,3.6,0.8,5.5,0.9V52.5l-5.5,7.6v-0.9l5.1-7
		l-5.1,1.7v-0.6l4.9-1.6l-4.9-1.6v-0.6l5.1,1.7l-5.1-7v-0.9l5.5,7.6V32.1c-1.9,0-3.8,0.3-5.5,0.9v-0.5
		C72.3,31.9,74.2,31.6,76.3,31.6 M70.5,70.9c-3.2-1-6.1-2.7-8.4-5c-3.6-3.6-5.9-8.6-5.9-14.2c0-5.5,2.2-10.5,5.9-14.2
		c2.3-2.3,5.2-4,8.4-5V33c-2,0.6-3.8,1.5-5.5,2.7l5.5,7.6v0.9L64.5,36c-0.8,0.6-1.5,1.2-2.1,1.8c-2.1,2.1-3.7,4.7-4.7,7.5l12.8,4.2
		v0.6l-12.9-4.2c-0.6,1.8-0.9,3.8-0.9,5.8c0,2,0.3,4,0.9,5.8l12.9-4.2v0.6L57.7,58c1,2.9,2.6,5.4,4.7,7.5c0.7,0.7,1.4,1.3,2.1,1.8
		l5.9-8.2v0.9l-5.5,7.6c1.7,1.2,3.5,2.1,5.5,2.7C70.5,70.4,70.5,70.9,70.5,70.9z"/>
	<path class="st0" d="M76.3,46.4c2.9,0,5.3,2.3,5.3,5.3s-2.4,5.2-5.3,5.2c-2.9,0-5.3-2.3-5.3-5.2C71,48.8,73.4,46.4,76.3,46.4"/>
	<polygon class="st0" points="74.9,28.1 75,28.1 74.7,29.8 74.5,29.8 	"/>
	<polygon class="st0" points="77.7,28.1 77.5,28.1 77.8,29.8 78,29.8 	"/>
	<path class="st0" d="M76.3,27.4c0.6,0,1.1,0.3,1.4,0.7h-2.8C75.2,27.7,75.7,27.4,76.3,27.4 M78,29.8c-0.2,0.7-0.9,1.2-1.7,1.2
		c-0.8,0-1.5-0.5-1.7-1.2H76v0.7h0.6v-0.7H78z"/>
	<path class="st0" d="M76.3,47c2.6,0,4.7,2.1,4.7,4.7c0,2.6-2.1,4.7-4.7,4.7c-2.6,0-4.7-2.1-4.7-4.7C71.6,49.1,73.7,47,76.3,47"/>
	<path class="st0" d="M76.3,26.8c13.8,0,24.9,11.1,24.9,24.9c0,13.7-11.1,24.9-24.9,24.9V77c14,0,25.3-11.3,25.3-25.3
		c0-14-11.3-25.3-25.3-25.3C76.3,26.3,76.3,26.8,76.3,26.8z M76.3,26.8L76.3,26.8v-0.4c-14,0-25.3,11.3-25.3,25.3
		c0,14,11.3,25.3,25.3,25.3v-0.4c-13.8,0-24.9-11.2-24.9-24.9C51.4,37.9,62.5,26.8,76.3,26.8"/>
	<polygon class="st0" points="81.9,29.1 82.1,29.1 81.8,30.8 81.6,30.8 	"/>
	<polygon class="st0" points="84.7,29.1 84.6,29.1 84.9,30.8 85.1,30.8 	"/>
	<path class="st0" d="M83.3,28.5c0.6,0,1.1,0.3,1.4,0.7h-2.8C82.3,28.7,82.8,28.5,83.3,28.5 M85.1,30.8c-0.2,0.7-0.9,1.2-1.7,1.2
		c-0.8,0-1.5-0.5-1.7-1.2h1.4v0.7h0.6v-0.7H85.1z"/>
	<polygon class="st0" points="88,32.2 88.1,32.2 87.8,33.9 87.7,33.9 	"/>
	<polygon class="st0" points="90.8,32.2 90.6,32.2 91,33.9 91.1,33.9 	"/>
	<path class="st0" d="M89.4,31.6c0.6,0,1.1,0.3,1.4,0.7H88C88.3,31.8,88.8,31.6,89.4,31.6 M91.1,33.9c-0.2,0.7-0.9,1.2-1.7,1.2
		s-1.5-0.5-1.7-1.2h1.4v0.7h0.6v-0.7H91.1z"/>
	<polygon class="st0" points="93,37.3 93.1,37.3 92.8,39 92.7,39 	"/>
	<polygon class="st0" points="95.8,37.3 95.6,37.3 95.9,39 96.1,39 	"/>
	<path class="st0" d="M94.4,36.6c0.6,0,1.1,0.3,1.4,0.7H93C93.3,36.9,93.8,36.6,94.4,36.6 M96.1,39c-0.2,0.7-0.9,1.2-1.7,1.2
		c-0.8,0-1.5-0.5-1.7-1.2h1.4v0.7h0.6V39H96.1z"/>
	<polygon class="st0" points="96.1,43.1 96.3,43.1 96,44.8 95.8,44.8 	"/>
	<polygon class="st0" points="98.9,43.1 98.8,43.1 99.1,44.8 99.2,44.8 	"/>
	<path class="st0" d="M97.5,42.4c0.6,0,1.1,0.3,1.4,0.7h-2.8C96.5,42.7,97,42.4,97.5,42.4 M99.2,44.8C99,45.5,98.3,46,97.5,46
		c-0.8,0-1.5-0.5-1.7-1.2h1.4v0.7h0.6v-0.7H99.2z"/>
	<polygon class="st0" points="97.3,50.6 97.5,50.6 97.2,52.3 97,52.3 	"/>
	<polygon class="st0" points="100.1,50.6 100,50.6 100.3,52.3 100.5,52.3 	"/>
	<path class="st0" d="M98.7,49.9c0.6,0,1.1,0.3,1.4,0.7h-2.8C97.7,50.2,98.2,49.9,98.7,49.9 M100.5,52.3c-0.2,0.7-0.9,1.2-1.7,1.2
		c-0.8,0-1.5-0.5-1.7-1.2h1.4v0.7H99v-0.7H100.5z"/>
	<polygon class="st0" points="96.4,57.2 96.5,57.2 96.2,58.9 96,58.9 	"/>
	<polygon class="st0" points="99.2,57.2 99,57.2 99.3,58.9 99.5,58.9 	"/>
	<path class="st0" d="M97.8,56.5c0.6,0,1.1,0.3,1.4,0.7h-2.8C96.7,56.8,97.2,56.5,97.8,56.5 M99.5,58.9c-0.2,0.7-0.9,1.2-1.7,1.2
		c-0.8,0-1.5-0.5-1.7-1.2h1.4v0.7h0.6v-0.7H99.5z"/>
	<polygon class="st0" points="93,63.7 93.1,63.7 92.8,65.4 92.7,65.4 	"/>
	<polygon class="st0" points="95.8,63.7 95.6,63.7 95.9,65.4 96.1,65.4 	"/>
	<path class="st0" d="M94.4,63c0.6,0,1.1,0.3,1.4,0.7H93C93.3,63.3,93.8,63,94.4,63 M96.1,65.4c-0.2,0.7-0.9,1.2-1.7,1.2
		c-0.8,0-1.5-0.5-1.7-1.2h1.4v0.7h0.6v-0.7H96.1z"/>
	<polygon class="st0" points="87.7,68.9 87.8,68.9 87.5,70.6 87.4,70.6 	"/>
	<polygon class="st0" points="90.5,68.9 90.3,68.9 90.7,70.6 90.8,70.6 	"/>
	<path class="st0" d="M89.1,68.2c0.6,0,1.1,0.3,1.4,0.7h-2.8C88,68.5,88.5,68.2,89.1,68.2 M90.8,70.6c-0.2,0.7-0.9,1.2-1.7,1.2
		c-0.8,0-1.5-0.5-1.7-1.2h1.4v0.7h0.6v-0.7H90.8z"/>
	<polygon class="st0" points="81.6,72.1 81.7,72.1 81.4,73.8 81.3,73.8 	"/>
	<polygon class="st0" points="84.4,72.1 84.2,72.1 84.5,73.8 84.7,73.8 	"/>
	<path class="st0" d="M83,71.4c0.6,0,1.1,0.3,1.4,0.7h-2.8C81.9,71.7,82.4,71.4,83,71.4 M84.7,73.8C84.4,74.5,83.8,75,83,75
		c-0.8,0-1.5-0.5-1.7-1.2h1.4v0.7h0.6v-0.7H84.7z"/>
	<polygon class="st0" points="70.5,29.1 70.4,29.1 70.7,30.8 70.8,30.8 	"/>
	<polygon class="st0" points="67.7,29.1 67.9,29.1 67.6,30.8 67.4,30.8 	"/>
	<path class="st0" d="M69.1,28.5c-0.6,0-1.1,0.3-1.4,0.7h2.8C70.2,28.7,69.7,28.5,69.1,28.5 M67.4,30.8c0.2,0.7,0.9,1.2,1.7,1.2
		c0.8,0,1.5-0.5,1.7-1.2h-1.4v0.7h-0.6v-0.7H67.4z"/>
	<polygon class="st0" points="64.5,32.2 64.4,32.2 64.7,33.9 64.8,33.9 	"/>
	<polygon class="st0" points="61.7,32.2 61.8,32.2 61.5,33.9 61.4,33.9 	"/>
	<path class="st0" d="M63.1,31.6c-0.6,0-1.1,0.3-1.4,0.7h2.8C64.2,31.8,63.7,31.6,63.1,31.6 M61.4,33.9c0.2,0.7,0.9,1.2,1.7,1.2
		c0.8,0,1.5-0.5,1.7-1.2h-1.4v0.7h-0.6v-0.7H61.4z"/>
	<polygon class="st0" points="59.5,37.3 59.4,37.3 59.7,39 59.8,39 	"/>
	<polygon class="st0" points="56.7,37.3 56.8,37.3 56.5,39 56.4,39 	"/>
	<path class="st0" d="M58.1,36.6c-0.6,0-1.1,0.3-1.4,0.7h2.8C59.2,36.9,58.7,36.6,58.1,36.6 M56.4,39c0.2,0.7,0.9,1.2,1.7,1.2
		c0.8,0,1.5-0.5,1.7-1.2h-1.4v0.7h-0.6V39H56.4z"/>
	<polygon class="st0" points="56.3,43.1 56.2,43.1 56.5,44.8 56.7,44.8 	"/>
	<polygon class="st0" points="53.5,43.1 53.7,43.1 53.4,44.8 53.2,44.8 	"/>
	<path class="st0" d="M54.9,42.4c-0.6,0-1.1,0.3-1.4,0.7h2.8C56,42.7,55.5,42.4,54.9,42.4 M53.2,44.8c0.2,0.7,0.9,1.2,1.7,1.2
		s1.5-0.5,1.7-1.2h-1.4v0.7h-0.6v-0.7H53.2z"/>
	<polygon class="st0" points="55.1,50.6 55,50.6 55.3,52.3 55.4,52.3 	"/>
	<polygon class="st0" points="52.3,50.6 52.5,50.6 52.2,52.3 52,52.3 	"/>
	<path class="st0" d="M53.7,49.9c-0.6,0-1.1,0.3-1.4,0.7h2.8C54.8,50.2,54.3,49.9,53.7,49.9 M52,52.3c0.2,0.7,0.9,1.2,1.7,1.2
		s1.5-0.5,1.7-1.2H54v0.7h-0.6v-0.7H52z"/>
	<polygon class="st0" points="56.1,57.2 56,57.2 56.3,58.9 56.4,58.9 	"/>
	<polygon class="st0" points="53.3,57.2 53.5,57.2 53.1,58.9 53,58.9 	"/>
	<path class="st0" d="M54.7,56.5c-0.6,0-1.1,0.3-1.4,0.7h2.8C55.8,56.8,55.3,56.5,54.7,56.5 M53,58.9c0.2,0.7,0.9,1.2,1.7,1.2
		c0.8,0,1.5-0.5,1.7-1.2H55v0.7h-0.6v-0.7H53z"/>
	<polygon class="st0" points="59.5,63.7 59.4,63.7 59.7,65.4 59.8,65.4 	"/>
	<polygon class="st0" points="56.7,63.7 56.8,63.7 56.5,65.4 56.4,65.4 	"/>
	<path class="st0" d="M58.1,63c-0.6,0-1.1,0.3-1.4,0.7h2.8C59.2,63.3,58.7,63,58.1,63 M56.4,65.4c0.2,0.7,0.9,1.2,1.7,1.2
		c0.8,0,1.5-0.5,1.7-1.2h-1.4v0.7h-0.6v-0.7H56.4z"/>
	<polygon class="st0" points="64.8,68.9 64.7,68.9 65,70.6 65.1,70.6 	"/>
	<polygon class="st0" points="62,68.9 62.1,68.9 61.8,70.6 61.7,70.6 	"/>
	<path class="st0" d="M63.4,68.2c-0.6,0-1.1,0.3-1.4,0.7h2.8C64.5,68.5,64,68.2,63.4,68.2 M61.7,70.6c0.2,0.7,0.9,1.2,1.7,1.2
		c0.8,0,1.5-0.5,1.7-1.2h-1.4v0.7h-0.6v-0.7H61.7z"/>
	<polygon class="st0" points="70.9,72.1 70.8,72.1 71.1,73.8 71.2,73.8 	"/>
	<polygon class="st0" points="68.1,72.1 68.2,72.1 67.9,73.8 67.8,73.8 	"/>
	<path class="st0" d="M69.5,71.4c-0.6,0-1.1,0.3-1.4,0.7h2.8C70.6,71.7,70.1,71.4,69.5,71.4 M67.8,73.8c0.2,0.7,0.9,1.2,1.7,1.2
		c0.8,0,1.5-0.5,1.7-1.2h-1.4v0.7h-0.6v-0.7H67.8z"/>
	<polygon class="st0" points="74.9,73.1 75,73.1 74.7,74.8 74.5,74.8 	"/>
	<polygon class="st0" points="77.7,73.1 77.5,73.1 77.8,74.8 78,74.8 	"/>
	<path class="st0" d="M76.3,72.4c0.6,0,1.1,0.3,1.4,0.7h-2.8C75.2,72.7,75.7,72.4,76.3,72.4 M78,74.8c-0.2,0.7-0.9,1.2-1.7,1.2
		c-0.8,0-1.5-0.5-1.7-1.2H76v0.7h0.6v-0.7H78z"/>
	<path class="st0" d="M86.5,34.4c3.3,1.9,5.9,4.8,7.6,8.1c2.3,4.6,2.9,10,1.3,15.3c-1.6,4.8-4.8,8.7-8.9,11.1v-0.5
		c2.1-1.3,4-3,5.5-5l-5.5-4v-0.7l5.8,4.2c1.1-1.6,2-3.3,2.6-5.3c0.6-1.9,0.9-3.9,0.9-5.8l-9.4,0v-0.5l9.4,0c-0.1-3.1-0.8-6-2.2-8.6
		c-0.4-0.8-0.9-1.6-1.5-2.4l-5.8,4.2v-0.7l5.4-4c-1.5-1.9-3.3-3.6-5.4-4.9L86.5,34.4L86.5,34.4z M82.4,32.6c1.5,0.5,2.8,1.1,4.1,1.8
		V35c-1.2-0.8-2.6-1.4-4-1.8l-3.1,9.7v-1.8L82,33c-0.9-0.3-1.7-0.5-2.6-0.6v-0.5C80.4,32,81.4,32.3,82.4,32.6 M86.5,68.9
		c-0.3,0.2-0.7,0.4-1.1,0.6c-1.9,1-3.9,1.6-6,2V71c0.9-0.2,1.8-0.4,2.7-0.7L79.4,62v-1.7l3.3,9.9c0.9-0.3,1.8-0.7,2.6-1.1
		c0.4-0.2,0.8-0.5,1.3-0.7L86.5,68.9L86.5,68.9z M86.5,43.9v0.7l-7.1,5.2v-0.7L86.5,43.9z M86.5,51.4v0.5l-7.1,0v-0.5L86.5,51.4z
		 M86.5,58.7v0.7l-7.1-5.1v-0.7L86.5,58.7z M79.4,71.5c-1.1,0.2-2.1,0.3-3.2,0.3v-0.4c1.1,0,2.1-0.1,3.2-0.2V71.5z M76.2,31.6
		c1.1,0,2.1,0.1,3.2,0.3v0.5c-1.1-0.2-2.1-0.3-3.2-0.3V31.6z M79.4,41.1v1.8L76.8,51l2.6-1.9v0.7l-2.3,1.7h2.3v0.5l-2.3,0l2.3,1.6
		v0.7l-2.6-1.9l2.6,7.9V62l-3.1-9.5l-0.1,0.2v-2.2l0.1,0.2L79.4,41.1z M76.2,71.7c-1,0-2-0.1-3.1-0.3V71c1,0.2,2,0.3,3.1,0.3V71.7z
		 M73.1,31.9c1-0.2,2-0.2,3.1-0.2v0.4c-1,0-2.1,0.1-3.1,0.3V31.9z M76.2,50.6v2.2l-3.1,9.5v-1.8l2.6-8.1l-2.6,1.9v-0.7l2.3-1.7
		l-2.3,0v-0.5l2.3,0l-2.3-1.7v-0.7l2.6,1.9l-2.6-7.9v-1.7L76.2,50.6z M73.1,71.5c-1-0.2-2-0.4-3-0.7c-0.7-0.2-1.3-0.5-2-0.7v-0.5
		c0.6,0.3,1.2,0.5,1.8,0.7l3.1-9.7v1.8l-2.6,8.1c0.9,0.3,1.7,0.5,2.6,0.6L73.1,71.5L73.1,71.5z M68.2,33.3c1.6-0.7,3.2-1.2,5-1.5
		v0.5c-0.9,0.2-1.8,0.4-2.7,0.7l2.7,8.4v1.7l-3.3-9.9c-0.6,0.2-1.1,0.4-1.7,0.7L68.2,33.3L68.2,33.3z M73.1,49.1v0.7l-5-3.6v-0.7
		L73.1,49.1z M73.1,51.4V52l-5,0v-0.5L73.1,51.4z M73.1,53.6v0.7l-5,3.6v-0.7L73.1,53.6z M68.2,70c-4.3-1.9-7.7-5.2-9.7-9.2
		c-2.3-4.6-3-10-1.3-15.3c1.7-5.3,5.3-9.4,9.9-11.7c0.4-0.2,0.7-0.4,1.1-0.5v0.5c-0.3,0.1-0.6,0.3-0.9,0.4c-2.6,1.4-5,3.3-6.8,5.8
		l7.7,5.5v0.7l-8-5.8c-1.1,1.6-2,3.3-2.6,5.3c-0.6,1.9-0.9,3.9-0.9,5.8l11.5,0V52l-11.5,0c0.1,3,0.8,6,2.2,8.6
		c0.4,0.8,0.9,1.6,1.5,2.4l7.9-5.8v0.7l-7.6,5.5c1.9,2.6,4.5,4.7,7.6,6.1C68.2,69.5,68.2,70,68.2,70z"/>
	<path class="st0" d="M76.3,25.6c0.3,0,0.6-0.3,0.6-0.6s-0.3-0.6-0.6-0.6s-0.6,0.3-0.6,0.6C75.7,25.4,75.9,25.6,76.3,25.6"/>
	<path class="st0" d="M103.4,51.7c0,0.3-0.3,0.6-0.6,0.6s-0.6-0.3-0.6-0.6s0.3-0.6,0.6-0.6C103.2,51.1,103.4,51.4,103.4,51.7"/>
	<path class="st0" d="M49.1,51.7c0-0.3,0.3-0.6,0.6-0.6c0.3,0,0.6,0.3,0.6,0.6c0,0.3-0.2,0.6-0.6,0.6C49.3,52.2,49.1,52,49.1,51.7"
		/>
	<path class="st0" d="M85.1,26c0.3,0.1,0.4,0.4,0.3,0.7c-0.1,0.3-0.4,0.5-0.7,0.3c-0.3-0.1-0.4-0.4-0.3-0.7
		C84.5,26.1,84.9,25.9,85.1,26"/>
	<path class="st0" d="M67.4,77.3c-0.3-0.1-0.4-0.4-0.3-0.7c0.1-0.3,0.4-0.4,0.7-0.3c0.3,0.1,0.4,0.4,0.3,0.7S67.7,77.4,67.4,77.3"/>
	<path class="st0" d="M92.2,29.7c0.3,0.2,0.3,0.5,0.1,0.8s-0.5,0.3-0.8,0.1c-0.3-0.2-0.3-0.5-0.1-0.8C91.6,29.6,91.9,29.5,92.2,29.7
		"/>
	<path class="st0" d="M60.3,73.7c-0.3-0.2-0.3-0.5-0.1-0.8c0.2-0.3,0.5-0.3,0.8-0.1c0.3,0.2,0.3,0.5,0.1,0.8
		C60.9,73.8,60.6,73.8,60.3,73.7"/>
	<path class="st0" d="M97.7,35.1c0.2,0.2,0.2,0.6-0.1,0.8C97.4,36,97,36,96.8,35.8c-0.2-0.3-0.1-0.6,0.1-0.8
		C97.2,34.8,97.5,34.8,97.7,35.1"/>
	<path class="st0" d="M54.8,68.3c-0.2-0.2-0.2-0.6,0.1-0.8c0.2-0.2,0.6-0.2,0.8,0.1c0.2,0.2,0.2,0.6-0.1,0.8
		C55.3,68.6,55,68.5,54.8,68.3"/>
	<path class="st0" d="M101.8,42.5c0.1,0.3,0,0.6-0.3,0.7c-0.3,0.1-0.6-0.1-0.7-0.3c-0.1-0.3,0.1-0.6,0.3-0.7
		C101.4,42,101.7,42.2,101.8,42.5"/>
	<path class="st0" d="M50.7,60.9c-0.1-0.3,0-0.6,0.3-0.7c0.3-0.1,0.6,0.1,0.7,0.3c0.1,0.3,0,0.6-0.3,0.7
		C51.1,61.3,50.8,61.2,50.7,60.9"/>
	<path class="st0" d="M101.9,60.7c-0.1,0.3-0.4,0.4-0.7,0.3c-0.3-0.1-0.4-0.4-0.4-0.7c0.1-0.3,0.4-0.4,0.7-0.3
		C101.8,60.1,102,60.4,101.9,60.7"/>
	<path class="st0" d="M50.6,42.6c0.1-0.3,0.4-0.4,0.7-0.3c0.3,0.1,0.4,0.4,0.3,0.7s-0.4,0.4-0.7,0.3C50.7,43.3,50.5,42.9,50.6,42.6"
		/>
	<path class="st0" d="M97.7,68.4c-0.2,0.3-0.6,0.3-0.8,0.1s-0.3-0.5-0.1-0.8c0.2-0.2,0.5-0.3,0.8-0.1C97.8,67.8,97.9,68.1,97.7,68.4
		"/>
	<path class="st0" d="M54.8,35c0.2-0.2,0.6-0.3,0.8-0.1c0.2,0.2,0.3,0.6,0.1,0.8c-0.2,0.3-0.5,0.3-0.8,0.1
		C54.7,35.6,54.6,35.2,54.8,35"/>
	<path class="st0" d="M92,73.8c-0.3,0.2-0.6,0.1-0.8-0.1s-0.1-0.6,0.1-0.8c0.3-0.2,0.6-0.1,0.8,0.1C92.3,73.3,92.2,73.6,92,73.8"/>
	<path class="st0" d="M60.5,29.5c0.3-0.2,0.6-0.1,0.8,0.1c0.2,0.3,0.1,0.6-0.1,0.8c-0.3,0.2-0.6,0.1-0.8-0.1
		C60.2,30.1,60.3,29.7,60.5,29.5"/>
	<path class="st0" d="M85.3,77.3c-0.3,0.1-0.6-0.1-0.7-0.3c-0.1-0.3,0.1-0.6,0.3-0.7c0.3-0.1,0.6,0.1,0.7,0.3
		C85.7,76.9,85.6,77.2,85.3,77.3"/>
	<path class="st0" d="M67.2,26.1c0.3-0.1,0.6,0,0.7,0.3s-0.1,0.6-0.3,0.7c-0.3,0.1-0.6,0-0.7-0.3C66.8,26.5,66.9,26.2,67.2,26.1"/>
	<polygon class="st0" points="129,61.4 112.2,67.2 112.2,80 130.4,80 	"/>
	<polygon class="st0" points="90.2,56.6 96.5,51.6 102.7,56.6 102.7,76.9 90.2,76.9 90.2,81.4 	"/>
	<polygon class="st0" points="82.1,62.6 86.8,58.8 91.6,62.6 91.6,78 82.1,78 82.1,81.4 	"/>
	<rect x="65.1" y="67.9" class="st0" width="18.3" height="12.1"/>
	<path class="st1" d="M138.1,80.5h-123v44.9h19V98.1c0-5.9,5.1-10.8,11.4-10.8h57.6c6.3,0,11.4,4.8,11.4,10.8v27.2h23.6V80.5z"/>
</g>
<g class="st2">
	<path class="st1" d="M181.4,74v5.5c-0.7-0.8-1.4-1.4-2.1-1.7c-0.7-0.3-1.5-0.5-2.2-0.5c-1.4,0-2.6,0.5-3.5,1.5
		c-0.3,0.4-0.6,0.7-0.8,1.1c-0.2,0.4-0.3,0.8-0.4,1.3c-0.1,0.5-0.1,1-0.1,1.5c0,1.5,0.5,2.7,1.4,3.7c0.9,1,2.1,1.5,3.5,1.5
		c0.8,0,1.5-0.2,2.2-0.5c0.6-0.3,1.3-0.9,2.1-1.7v5.5c-0.9,0.4-1.7,0.7-2.4,0.9c-0.8,0.2-1.6,0.3-2.4,0.3c-1,0-1.9-0.1-2.8-0.4
		c-0.9-0.2-1.7-0.6-2.4-1.1c-1.4-0.9-2.4-2.1-3.2-3.5c-0.7-1.4-1.1-3-1.1-4.8c0-1.4,0.2-2.7,0.7-3.9c0.2-0.6,0.5-1.1,0.8-1.6
		c0.3-0.5,0.7-1,1.3-1.6c0.9-0.9,1.9-1.6,3-2c1.1-0.4,2.3-0.7,3.7-0.7c0.8,0,1.6,0.1,2.4,0.3C179.8,73.3,180.6,73.6,181.4,74z"/>
	<path class="st1" d="M191.9,91.8V79h4.5v12.8H191.9z M192.5,75.7L192.5,75.7c0-0.5,0.2-0.9,0.5-1.2c0.3-0.3,0.7-0.5,1.2-0.5
		c0.5,0,0.9,0.2,1.2,0.5c0.3,0.3,0.5,0.7,0.5,1.2c0,0.5-0.2,0.9-0.5,1.2c-0.3,0.3-0.7,0.5-1.2,0.5c-0.5,0-0.9-0.2-1.2-0.5
		C192.7,76.6,192.5,76.2,192.5,75.7z"/>
	<path class="st1" d="M209,91.8l0-9.6H207V79h1.9v-3.8h4.5V79h1.9v3.2h-1.9v9.6H209z"/>
	<path class="st1" d="M224.8,97.4l3.6-7.6L223.3,79h5l1.8,4.6c0.2,0.4,0.3,0.8,0.4,1.1c0.1,0.3,0.2,0.6,0.2,0.9
		c0.1-0.3,0.1-0.6,0.2-1c0.1-0.3,0.2-0.7,0.4-1.1l1.8-4.6h4.8l-8,18.4H224.8z"/>
	<path class="st1" d="M261.2,79v12.8c0,1.9-0.6,3.4-1.8,4.3c-0.6,0.5-1.3,0.8-2.2,1c-0.9,0.2-2,0.4-3.2,0.4c-2,0-3.6-0.4-4.7-1.1
		c-1.1-0.8-1.7-1.8-1.8-3.1h4.7c0.1,0.4,0.3,0.7,0.7,0.9c0.4,0.2,0.9,0.3,1.5,0.3c1,0,1.6-0.2,2-0.7c0.4-0.5,0.5-1.4,0.5-3v-1.2
		c-0.5,0.8-1.1,1.4-1.8,1.8c-0.8,0.4-1.6,0.6-2.6,0.6c-1.7,0-3-0.6-4.1-1.8c-0.5-0.6-0.9-1.3-1.1-2.1c-0.3-0.8-0.4-1.7-0.4-2.8
		c0-2,0.5-3.7,1.6-4.9c0.5-0.6,1.2-1.1,1.9-1.4c0.7-0.3,1.5-0.4,2.4-0.4c1,0,1.8,0.2,2.5,0.6c0.7,0.4,1.3,1,1.8,1.9V79H261.2z
		 M257.2,85.4c0-1-0.3-1.8-0.8-2.3c-0.6-0.6-1.3-0.8-2.2-0.8c-0.9,0-1.6,0.3-2.2,0.8c-0.5,0.6-0.8,1.3-0.8,2.3c0,1,0.3,1.8,0.8,2.3
		c0.5,0.6,1.3,0.9,2.2,0.9c0.9,0,1.6-0.3,2.2-0.9C257,87.1,257.2,86.4,257.2,85.4z"/>
	<path class="st1" d="M286.4,79v12.8h-4.2v-2.1c-0.6,0.9-1.3,1.5-2,1.9s-1.6,0.6-2.6,0.6c-1.7,0-3.1-0.6-4.1-1.9
		c-0.5-0.6-0.9-1.3-1.1-2.2c-0.3-0.8-0.4-1.8-0.4-2.8c0-2.1,0.5-3.8,1.6-5c1.1-1.2,2.5-1.8,4.3-1.8c1,0,1.8,0.2,2.5,0.6
		c0.7,0.4,1.3,1,1.8,1.9V79H286.4z M282.5,85.4c0-1-0.3-1.8-0.8-2.4c-0.5-0.6-1.3-0.9-2.2-0.9c-0.9,0-1.6,0.3-2.1,0.9
		c-0.5,0.6-0.8,1.4-0.8,2.4c0,1,0.3,1.8,0.8,2.4c0.5,0.6,1.2,0.8,2.1,0.8c0.9,0,1.6-0.3,2.2-0.8C282.2,87.2,282.5,86.4,282.5,85.4z"
		/>
	<path class="st1" d="M298.7,91.8l0-9.6h-1.9V79h1.9v-3.8h4.5V79h1.9v3.2h-1.9v9.6H298.7z"/>
	<path class="st1" d="M328.5,86.3h-9.7c0,1,0.3,1.8,0.7,2.3c0.5,0.5,1.2,0.8,2.1,0.8c0.7,0,1.3-0.1,1.7-0.4c0.5-0.3,0.8-0.7,1.1-1.1
		l3.4,1.4c-0.4,1-1.1,1.7-2.2,2.3c-1,0.5-2.3,0.8-3.8,0.8c-2.2,0-4-0.6-5.4-1.9c-1.3-1.2-2-2.8-2-4.9c0-2,0.7-3.6,2-5
		c1.3-1.3,3-2,5.1-2c2.1,0,3.8,0.7,5,2c0.6,0.7,1.1,1.5,1.4,2.4c0.3,0.9,0.5,1.9,0.5,3.1V86.3z M324.1,83.7
		c-0.1-0.7-0.4-1.3-0.8-1.7c-0.5-0.4-1.1-0.7-1.7-0.7c-0.7,0-1.3,0.2-1.7,0.6c-0.5,0.4-0.8,1.1-0.9,1.8H324.1z"/>
</g>
<g class="st2">
	<path class="st1" d="M151.5,116.5c0.8,0.9,1.5,1.5,2.2,1.9c0.7,0.4,1.5,0.6,2.2,0.6c0.7,0,1.2-0.2,1.7-0.5c0.4-0.4,0.7-0.8,0.7-1.4
		c0-0.6-0.2-1.1-0.5-1.4c-0.4-0.3-1.2-0.7-2.6-1c-1.8-0.5-3.1-1.1-3.8-1.9c-0.8-0.8-1.1-1.9-1.1-3.2c0-1.8,0.6-3.2,1.8-4.3
		c1.2-1.1,2.7-1.7,4.6-1.7c1.1,0,2,0.1,2.9,0.4c0.9,0.3,1.8,0.7,2.6,1.2l-1.6,3.6c-0.6-0.5-1.1-0.9-1.8-1.1
		c-0.6-0.2-1.2-0.4-1.8-0.4c-0.6,0-1.1,0.1-1.5,0.4c-0.4,0.3-0.6,0.7-0.6,1.1c0,0.4,0.2,0.8,0.5,1.1c0.3,0.3,1,0.5,2,0.8
		c0,0,0.1,0,0.1,0c0,0,0.1,0,0.1,0c2.1,0.5,3.4,1.2,4.1,1.8c0.4,0.4,0.8,1,1,1.6c0.2,0.6,0.3,1.3,0.3,2.1c0,2-0.6,3.5-1.9,4.8
		c-1.3,1.2-3,1.8-5.2,1.8c-1.3,0-2.5-0.2-3.5-0.6s-2.1-1.1-3.1-2.1L151.5,116.5z"/>
	<path class="st1" d="M186.7,109.7v6.5c0,1.5-0.1,2.5-0.3,3.2c-0.2,0.7-0.6,1.3-1.2,1.9c-0.5,0.6-1.2,1-2.1,1.3
		c-0.8,0.3-1.8,0.4-3,0.4c-1.2,0-2.1-0.1-3-0.4c-0.8-0.3-1.6-0.7-2.2-1.3c-0.5-0.5-0.9-1.1-1.2-1.8c-0.2-0.7-0.3-1.7-0.3-3.2v-6.5
		h4.3v6.8c0,1.1,0.2,1.8,0.5,2.3c0.3,0.5,0.9,0.7,1.7,0.7c0.8,0,1.4-0.2,1.7-0.7c0.4-0.5,0.5-1.3,0.5-2.3v-6.8H186.7z"/>
	<path class="st1" d="M198.1,122.5v-12.8h4.3v3c0.4-1.1,1-1.9,1.8-2.5c0.8-0.6,1.7-0.8,2.8-0.8c0.2,0,0.4,0,0.5,0c0.1,0,0.2,0,0.3,0
		c0.1,0,0.2,0,0.3,0l-0.4,4.1c-0.3-0.1-0.6-0.2-0.8-0.2c-0.3,0-0.6-0.1-0.7-0.1c-1.1,0-1.9,0.3-2.5,1c-0.6,0.7-0.9,1.6-0.9,2.9v5.3
		H198.1z"/>
	<path class="st1" d="M221.6,122.5l-5.8-12.8h4.8l2.2,5.7c0,0,0,0.1,0.1,0.2c0.2,0.6,0.4,1.2,0.5,1.8c0.1-0.5,0.3-1,0.5-1.7
		c0-0.1,0.1-0.2,0.1-0.3l2.2-5.7h4.7l-5.8,12.8H221.6z"/>
	<path class="st1" d="M253.8,117h-9.7c0,1,0.3,1.8,0.7,2.3c0.5,0.5,1.2,0.8,2.1,0.8c0.7,0,1.3-0.1,1.7-0.4c0.5-0.3,0.8-0.7,1.1-1.1
		l3.4,1.4c-0.4,1-1.1,1.7-2.2,2.3c-1,0.5-2.3,0.8-3.8,0.8c-2.2,0-4-0.6-5.4-1.9c-1.3-1.2-2-2.8-2-4.9c0-2,0.7-3.6,2-5
		c1.3-1.3,3-2,5.1-2c2.1,0,3.8,0.7,5,2c0.6,0.7,1.1,1.5,1.4,2.4c0.3,0.9,0.5,1.9,0.5,3.1V117z M249.3,114.5
		c-0.1-0.7-0.4-1.3-0.8-1.7c-0.5-0.4-1.1-0.7-1.7-0.7c-0.7,0-1.3,0.2-1.7,0.6c-0.5,0.4-0.8,1.1-0.9,1.8H249.3z"/>
	<path class="st1" d="M263.8,128.2l3.6-7.6l-5.2-10.8h5l1.8,4.6c0.2,0.4,0.3,0.8,0.4,1.1c0.1,0.3,0.2,0.6,0.2,0.9
		c0.1-0.3,0.1-0.6,0.2-1c0.1-0.3,0.2-0.7,0.4-1.1l1.8-4.6h4.8l-8,18.4H263.8z"/>
	<path class="st1" d="M300,116.2c0,0.9-0.2,1.8-0.5,2.6c-0.4,0.9-0.9,1.6-1.6,2.2c-0.7,0.7-1.5,1.2-2.3,1.5
		c-0.8,0.3-1.7,0.5-2.7,0.5c-1,0-1.9-0.2-2.7-0.5c-0.8-0.3-1.6-0.8-2.3-1.5c-0.7-0.7-1.2-1.4-1.5-2.2c-0.4-0.8-0.5-1.7-0.5-2.6
		c0-0.9,0.2-1.8,0.5-2.6c0.3-0.8,0.8-1.6,1.5-2.2c0.7-0.6,1.4-1.1,2.3-1.5c0.8-0.3,1.7-0.5,2.7-0.5c1,0,1.9,0.2,2.7,0.5
		c0.9,0.3,1.6,0.8,2.3,1.5c0.7,0.6,1.2,1.4,1.6,2.2C299.8,114.4,300,115.2,300,116.2z M295.5,116.2c0-1-0.2-1.7-0.7-2.3
		c-0.5-0.5-1.1-0.8-2-0.8c-0.8,0-1.5,0.3-2,0.8c-0.5,0.5-0.7,1.3-0.7,2.3c0,0.9,0.2,1.7,0.7,2.2c0.5,0.6,1.2,0.8,2,0.8
		c0.8,0,1.5-0.3,2-0.8C295.3,117.8,295.5,117.1,295.5,116.2z"/>
	<path class="st1" d="M310.7,122.5v-12.8h4.3v3c0.4-1.1,1-1.9,1.8-2.5c0.8-0.6,1.7-0.8,2.8-0.8c0.2,0,0.4,0,0.5,0c0.1,0,0.2,0,0.3,0
		c0.1,0,0.2,0,0.3,0l-0.4,4.1c-0.3-0.1-0.6-0.2-0.8-0.2c-0.3,0-0.6-0.1-0.7-0.1c-1.1,0-1.9,0.3-2.5,1c-0.6,0.7-0.9,1.6-0.9,2.9v5.3
		H310.7z"/>
	<path class="st1" d="M329.2,121.5l0.9-3.4c0.7,0.6,1.4,1,2.2,1.3c0.8,0.3,1.6,0.5,2.4,0.5c0.6,0,1-0.1,1.3-0.3
		c0.3-0.2,0.4-0.4,0.4-0.8c0-0.6-0.6-1-1.8-1.3c-0.4-0.1-0.7-0.2-0.9-0.2c-1.4-0.4-2.4-0.9-2.9-1.5c-0.6-0.6-0.9-1.4-0.9-2.3
		c0-1.2,0.5-2.2,1.4-3c0.9-0.7,2.2-1.1,3.8-1.1c0.8,0,1.6,0.1,2.5,0.3c0.7,0.2,1.6,0.5,2.6,0.9l-0.9,3.1c-0.6-0.4-1.2-0.7-1.8-0.9
		c-0.6-0.2-1.2-0.3-1.8-0.3c-0.5,0-0.9,0.1-1.2,0.2c-0.3,0.2-0.4,0.4-0.4,0.7c0,0.4,0.6,0.8,1.8,1.1c0.4,0.1,0.6,0.2,0.6,0.2
		c1.6,0.4,2.6,1,3.3,1.6c0.6,0.6,0.9,1.5,0.9,2.5c0,1.3-0.5,2.4-1.5,3.2c-1,0.8-2.4,1.2-4,1.2c-1.1,0-2.2-0.1-3.1-0.4
		C331,122.4,330.1,122,329.2,121.5z"/>
</g>
</svg>
